<svg width="3042" height="1999" xmlns="http://www.w3.org/2000/svg" xmlns:xlink="http://www.w3.org/1999/xlink" xml:space="preserve" overflow="hidden"><g transform="translate(-358 -414)"><rect x="1059" y="686" width="1356" height="141" stroke="#000000" stroke-width="10.3125" stroke-miterlimit="8"/><text fill="#FFFFFF" font-family="Arial,Arial_MSFontService,sans-serif" font-weight="400" font-size="73" transform="matrix(1 0 0 1 1374.43 783)">representative_figures</text><rect x="1059" y="827" width="1356" height="225" stroke="#000000" stroke-width="10.3125" stroke-miterlimit="8" fill="#FFFFFF"/><text font-family="Arial,Arial_MSFontService,sans-serif" font-weight="400" font-size="73" transform="matrix(1 0 0 1 1084.82 922)">Containing the representative figures for </text><text font-family="Arial,Arial_MSFontService,sans-serif" font-weight="400" font-size="73" transform="matrix(1 0 0 1 1364.13 1010)">reproducing the results</text><rect x="1059" y="1162" width="1356" height="141" stroke="#000000" stroke-width="10.3125" stroke-miterlimit="8"/><text fill="#FFFFFF" font-family="Arial,Arial_MSFontService,sans-serif" font-weight="400" font-size="73" transform="matrix(1 0 0 1 1603.74 1260)">EVASim</text><rect x="1059" y="1303" width="1356" height="225" stroke="#000000" stroke-width="10.3125" stroke-miterlimit="8" fill="#FFFFFF"/><text font-family="Arial,Arial_MSFontService,sans-serif" font-weight="400" font-size="73" transform="matrix(1 0 0 1 1076.51 1399)">Codes/data/results for embedding vector </text><text font-family="Arial,Arial_MSFontService,sans-serif" font-weight="400" font-size="73" transform="matrix(1 0 0 1 1295.8 1487)">access simulator (</text><text font-family="Arial,Arial_MSFontService,sans-serif" font-weight="400" font-size="73" transform="matrix(1 0 0 1 1887.05 1487)">EVASim</text><text font-family="Arial,Arial_MSFontService,sans-serif" font-weight="400" font-size="73" transform="matrix(1 0 0 1 2153.73 1487)">)</text><rect x="1059" y="1639" width="1356" height="141" stroke="#000000" stroke-width="10.3125" stroke-miterlimit="8"/><text fill="#FFFFFF" font-family="Arial,Arial_MSFontService,sans-serif" font-weight="400" font-size="73" transform="matrix(1 0 0 1 1442.32 1736)">workload_profiling</text><rect x="1059" y="1780" width="1356" height="225" stroke="#000000" stroke-width="10.3125" stroke-miterlimit="8" fill="#FFFFFF"/><text font-family="Arial,Arial_MSFontService,sans-serif" font-weight="400" font-size="73" transform="matrix(1 0 0 1 1111.46 1875)">Codes/data/results for profiling various </text><text font-family="Arial,Arial_MSFontService,sans-serif" font-weight="400" font-size="73" transform="matrix(1 0 0 1 1166.73 1963)">workloads with embedding vectors.</text><rect x="363" y="1387" width="413" height="141" stroke="#000000" stroke-width="10.3125" stroke-miterlimit="8"/><text fill="#FFFFFF" font-family="Arial,Arial_MSFontService,sans-serif" font-weight="400" font-size="73" transform="matrix(1 0 0 1 506.172 1485)">root</text><rect x="751" y="427" width="222" height="141" stroke="#000000" stroke-width="10.3125" stroke-miterlimit="8"/><text font-family="Arial,Arial_MSFontService,sans-serif" font-weight="400" font-size="92" transform="matrix(1 0 0 1 1074.56 531)">Directory</text><rect x="2499" y="427" width="222" height="141" stroke="#000000" stroke-width="10.3125" stroke-miterlimit="8" fill="#FFFFFF"/><text font-family="Arial,Arial_MSFontService,sans-serif" font-weight="400" font-size="92" transform="matrix(1 0 0 1 2823.19 531)">Description</text><rect x="1059" y="2102" width="1356" height="141" stroke="#000000" stroke-width="10.3125" stroke-miterlimit="8"/><text fill="#FFFFFF" font-family="Arial,Arial_MSFontService,sans-serif" font-weight="400" font-size="73" transform="matrix(1 0 0 1 1313.41 2199)">artifact_evalutaion_scripts</text><rect x="1059" y="2243" width="1356" height="163" stroke="#000000" stroke-width="10.3125" stroke-miterlimit="8" fill="#FFFFFF"/><text font-family="Arial,Arial_MSFontService,sans-serif" font-weight="400" font-size="73" transform="matrix(1 0 0 1 1207.42 2352)">Scripts for convenient evaluation</text><rect x="2699" y="896" width="609" height="141" stroke="#000000" stroke-width="10.3125" stroke-miterlimit="8"/><text fill="#FFFFFF" font-family="Arial,Arial_MSFontService,sans-serif" font-weight="400" font-size="73" transform="matrix(1 0 0 1 2887.4 993)">configs</text><rect x="2699" y="1079" width="609" height="141" stroke="#000000" stroke-width="10.3125" stroke-miterlimit="8"/><text fill="#FFFFFF" font-family="Arial,Arial_MSFontService,sans-serif" font-weight="400" font-size="73" transform="matrix(1 0 0 1 2864.77 1176)">datasets</text><rect x="2699" y="1262" width="609" height="141" stroke="#000000" stroke-width="10.3125" stroke-miterlimit="8"/><text fill="#FFFFFF" font-family="Arial,Arial_MSFontService,sans-serif" font-weight="400" font-size="73" transform="matrix(1 0 0 1 2895.42 1360)">results</text><rect x="1739" y="427" width="223" height="141" stroke="#000000" stroke-width="10.3125" stroke-miterlimit="8" fill="#D9D9D9"/><text font-family="Arial,Arial_MSFontService,sans-serif" font-weight="400" font-size="92" transform="matrix(1 0 0 1 2063.42 531)">File</text><rect x="2699" y="1445" width="609" height="141" stroke="#000000" stroke-width="10.3125" stroke-miterlimit="8"/><text fill="#FFFFFF" font-family="Arial,Arial_MSFontService,sans-serif" font-weight="400" font-size="73" transform="matrix(1 0 0 1 2954.43 1543)">src</text><rect x="2699" y="1640" width="609" height="141" stroke="#000000" stroke-width="10.3125" stroke-miterlimit="8"/><text fill="#FFFFFF" font-family="Arial,Arial_MSFontService,sans-serif" font-weight="400" font-size="73" transform="matrix(1 0 0 1 2864.77 1737)">datasets</text><rect x="2699" y="1823" width="609" height="141" stroke="#000000" stroke-width="10.3125" stroke-miterlimit="8"/><text fill="#FFFFFF" font-family="Arial,Arial_MSFontService,sans-serif" font-weight="400" font-size="73" transform="matrix(1 0 0 1 2895.42 1920)">results</text><rect x="2699" y="2006" width="609" height="141" stroke="#000000" stroke-width="10.3125" stroke-miterlimit="8"/><text fill="#FFFFFF" font-family="Arial,Arial_MSFontService,sans-serif" font-weight="400" font-size="73" transform="matrix(1 0 0 1 2954.43 2103)">src</text><rect x="2699" y="2219" width="609" height="141" stroke="#000000" stroke-width="10.3125" stroke-miterlimit="8" fill="#D9D9D9"/><text font-family="Arial,Arial_MSFontService,sans-serif" font-weight="400" font-size="73" transform="matrix(1 0 0 1 2897.43 2316)">scripts</text><rect x="2699" y="693" width="609" height="141" stroke="#000000" stroke-width="10.3125" stroke-miterlimit="8" fill="#D9D9D9"/><text font-family="Arial,Arial_MSFontService,sans-serif" font-weight="400" font-size="73" transform="matrix(1 0 0 1 2893.42 790)">figures</text><path d="M776 1458 920.271 1458" stroke="#000000" stroke-width="13.75" stroke-miterlimit="8" fill="none" fill-rule="evenodd"/><path d="M920 763 920 2173" stroke="#000000" stroke-width="13.75" stroke-miterlimit="8" fill="none" fill-rule="evenodd"/><path d="M914 763 1058.27 763" stroke="#000000" stroke-width="13.75" stroke-miterlimit="8" fill="none" fill-rule="evenodd"/><path d="M914 1238 1058.27 1238" stroke="#000000" stroke-width="13.75" stroke-miterlimit="8" fill="none" fill-rule="evenodd"/><path d="M914 1714 1058.27 1714" stroke="#000000" stroke-width="13.75" stroke-miterlimit="8" fill="none" fill-rule="evenodd"/><path d="M914 2173 1058.27 2173" stroke="#000000" stroke-width="13.75" stroke-miterlimit="8" fill="none" fill-rule="evenodd"/><path d="M2415 1235 2559.27 1235" stroke="#000000" stroke-width="13.75" stroke-miterlimit="8" fill="none" fill-rule="evenodd"/><path d="M2560 967 2560 1520.33" stroke="#000000" stroke-width="13.75" stroke-miterlimit="8" fill="none" fill-rule="evenodd"/><path d="M2420 763 2698.35 763" stroke="#000000" stroke-width="13.75" stroke-miterlimit="8" fill="none" fill-rule="evenodd"/><path d="M2554 968 2698.27 968" stroke="#000000" stroke-width="13.75" stroke-miterlimit="8" fill="none" fill-rule="evenodd"/><path d="M2564 1512 2708.27 1512" stroke="#000000" stroke-width="13.75" stroke-miterlimit="8" fill="none" fill-rule="evenodd"/><path d="M2554 1148 2698.27 1148" stroke="#000000" stroke-width="13.75" stroke-miterlimit="8" fill="none" fill-rule="evenodd"/><path d="M2554 1338 2698.27 1338" stroke="#000000" stroke-width="13.75" stroke-miterlimit="8" fill="none" fill-rule="evenodd"/><path d="M2560 1715 2560 2086.35" stroke="#000000" stroke-width="13.75" stroke-miterlimit="8" fill="none" fill-rule="evenodd"/><path d="M2558 1715 2702.27 1715" stroke="#000000" stroke-width="13.75" stroke-miterlimit="8" fill="none" fill-rule="evenodd"/><path d="M2554 1892 2698.27 1892" stroke="#000000" stroke-width="13.75" stroke-miterlimit="8" fill="none" fill-rule="evenodd"/><path d="M2554 2082 2698.27 2082" stroke="#000000" stroke-width="13.75" stroke-miterlimit="8" fill="none" fill-rule="evenodd"/><path d="M2415 1714 2559.27 1714" stroke="#000000" stroke-width="13.75" stroke-miterlimit="8" fill="none" fill-rule="evenodd"/><path d="M2415 2175 2559.27 2175" stroke="#000000" stroke-width="13.75" stroke-miterlimit="8" fill="none" fill-rule="evenodd"/><path d="M2560 2169 2560 2292.75" stroke="#000000" stroke-width="13.75" stroke-miterlimit="8" fill="none" fill-rule="evenodd"/><path d="M2554 2288 2698.27 2288" stroke="#000000" stroke-width="13.75" stroke-miterlimit="8" fill="none" fill-rule="evenodd"/></g></svg>