<svg width="3733" height="1869" xmlns="http://www.w3.org/2000/svg" xmlns:xlink="http://www.w3.org/1999/xlink" xml:space="preserve" overflow="hidden"><defs><clipPath id="clip0"><rect x="252" y="470" width="3733" height="1869"/></clipPath></defs><g clip-path="url(#clip0)" transform="translate(-252 -470)"><rect x="257" y="658" width="931" height="601" stroke="#000000" stroke-width="10.3125" stroke-miterlimit="8" fill="#F2F2F2"/><text font-family="Arial,Arial_MSFontService,sans-serif" font-weight="700" font-size="92" transform="matrix(1 0 0 1 330.87 793)">Workload Configs</text><text font-family="Wingdings,Wingdings_MSFontService,sans-serif" font-weight="400" font-size="59" transform="matrix(1 0 0 1 289.666 900)"></text><text font-family="Arial,Arial_MSFontService,sans-serif" font-weight="400" font-size="73" transform="matrix(1 0 0 1 392.791 900)">Embedding dimension</text><text font-family="Wingdings,Wingdings_MSFontService,sans-serif" font-weight="400" font-size="59" transform="matrix(1 0 0 1 289.666 1000)"></text><text font-family="Arial,Arial_MSFontService,sans-serif" font-weight="400" font-size="73" transform="matrix(1 0 0 1 392.791 1000)">Number of batches</text><text font-family="Wingdings,Wingdings_MSFontService,sans-serif" font-weight="400" font-size="59" transform="matrix(1 0 0 1 289.666 1100)"></text><text font-family="Arial,Arial_MSFontService,sans-serif" font-weight="400" font-size="73" transform="matrix(1 0 0 1 392.791 1100)">Batch size</text><text font-family="Wingdings,Wingdings_MSFontService,sans-serif" font-weight="400" font-size="59" transform="matrix(1 0 0 1 289.666 1201)"></text><text font-family="Arial,Arial_MSFontService,sans-serif" font-weight="400" font-size="73" transform="matrix(1 0 0 1 392.791 1201)">Model parameters</text><rect x="257" y="1297" width="931" height="815" stroke="#000000" stroke-width="10.3125" stroke-miterlimit="8" fill="#F2F2F2"/><text font-family="Arial,Arial_MSFontService,sans-serif" font-weight="700" font-size="92" transform="matrix(1 0 0 1 462.389 1439)">HW Configs</text><text font-family="Wingdings,Wingdings_MSFontService,sans-serif" font-weight="400" font-size="59" transform="matrix(1 0 0 1 289.666 1546)"></text><text font-family="Arial,Arial_MSFontService,sans-serif" font-weight="400" font-size="73" transform="matrix(1 0 0 1 392.791 1546)">Type (‘</text><text font-family="Arial,Arial_MSFontService,sans-serif" font-weight="400" font-size="73" transform="matrix(1 0 0 1 612.745 1546)">spad</text><text font-family="Arial,Arial_MSFontService,sans-serif" font-weight="400" font-size="73" transform="matrix(1 0 0 1 771.443 1546)">’ or ‘cache’)</text><text font-family="Wingdings,Wingdings_MSFontService,sans-serif" font-weight="400" font-size="59" transform="matrix(1 0 0 1 289.666 1646)"></text><text font-family="Arial,Arial_MSFontService,sans-serif" font-weight="400" font-size="73" transform="matrix(1 0 0 1 392.791 1646)">Memory policy</text><text font-family="Wingdings,Wingdings_MSFontService,sans-serif" font-weight="400" font-size="59" transform="matrix(1 0 0 1 289.666 1746)"></text><text font-family="Arial,Arial_MSFontService,sans-serif" font-weight="400" font-size="73" transform="matrix(1 0 0 1 392.791 1746)">Memory size</text><text font-family="Wingdings,Wingdings_MSFontService,sans-serif" font-weight="400" font-size="59" transform="matrix(1 0 0 1 289.666 1847)"></text><text font-family="Arial,Arial_MSFontService,sans-serif" font-weight="400" font-size="73" transform="matrix(1 0 0 1 392.791 1847)">Access granularity</text><text font-family="Wingdings,Wingdings_MSFontService,sans-serif" font-weight="400" font-size="59" transform="matrix(1 0 0 1 289.666 1947)"></text><text font-family="Arial,Arial_MSFontService,sans-serif" font-weight="400" font-size="73" transform="matrix(1 0 0 1 392.791 1947)">Cache </text><text font-family="Arial,Arial_MSFontService,sans-serif" font-weight="400" font-size="73" transform="matrix(1 0 0 1 624.822 1947)">configs</text><text font-family="Arial,Arial_MSFontService,sans-serif" font-weight="400" font-size="73" transform="matrix(1 0 0 1 392.791 2047)">(#</text><text font-family="Arial,Arial_MSFontService,sans-serif" font-weight="400" font-size="73" transform="matrix(1 0 0 1 478.728 2047)">of</text><text font-family="Arial,Arial_MSFontService,sans-serif" font-weight="400" font-size="73" transform="matrix(1 0 0 1 560.656 2047)">ways, line size)</text><path d="M1387 608.336C1387 551.265 1433.26 505 1490.34 505L2601.66 505C2658.73 505 2705 551.265 2705 608.336L2705 1021.66C2705 1078.74 2658.73 1125 2601.66 1125L1490.34 1125C1433.26 1125 1387 1078.74 1387 1021.66Z" stroke="#000000" stroke-width="13.75" stroke-miterlimit="8" fill="#D9D9D9" fill-rule="evenodd"/><text font-family="Arial,Arial_MSFontService,sans-serif" font-weight="700" font-size="92" transform="matrix(1 0 0 1 1633.54 651)">Request Generator</text><text font-family="Wingdings,Wingdings_MSFontService,sans-serif" font-weight="400" font-size="73" transform="matrix(1 0 0 1 1450.78 757)"></text><text font-family="Arial,Arial_MSFontService,sans-serif" font-weight="400" font-size="73" transform="matrix(1 0 0 1 1553.91 757)">Generating full access trace </text><text font-family="Arial,Arial_MSFontService,sans-serif" font-weight="400" font-size="73" transform="matrix(1 0 0 1 1553.91 856)">using workload configurations</text><text font-family="Wingdings,Wingdings_MSFontService,sans-serif" font-weight="400" font-size="73" transform="matrix(1 0 0 1 1450.78 956)"></text><text font-family="Arial,Arial_MSFontService,sans-serif" font-weight="400" font-size="73" transform="matrix(1 0 0 1 1553.91 956)">Converting embedding vector </text><text font-family="Arial,Arial_MSFontService,sans-serif" font-weight="400" font-size="73" transform="matrix(1 0 0 1 1553.91 1055)">indices into memory addresses</text><rect x="257" y="475" width="931" height="152" stroke="#000000" stroke-width="10.3125" stroke-miterlimit="8" fill="#F2F2F2"/><text font-family="Arial,Arial_MSFontService,sans-serif" font-weight="700" font-size="92" transform="matrix(1 0 0 1 439.765 587)">Access trace</text><rect x="252" y="2157" width="936" height="144" fill="#FFF2CC"/><text font-family="Arial,Arial_MSFontService,sans-serif" font-weight="700" font-size="92" transform="matrix(1 0 0 1 607.994 2262)">Input</text><rect x="1378" y="2157" width="1327" height="144" fill="#FFF2CC"/><text font-family="Arial,Arial_MSFontService,sans-serif" font-weight="700" font-size="92" transform="matrix(1 0 0 1 1807.63 2262)">Simulation</text><rect x="2900" y="2157" width="1080" height="144" fill="#FFF2CC"/><text font-family="Arial,Arial_MSFontService,sans-serif" font-weight="700" font-size="92" transform="matrix(1 0 0 1 3289.73 2262)">Output</text><path d="M1378 1299.34C1378 1242.26 1424.27 1196 1481.34 1196L2592.66 1196C2649.74 1196 2696 1242.26 2696 1299.34L2696 1712.66C2696 1769.74 2649.74 1816 2592.66 1816L1481.34 1816C1424.27 1816 1378 1769.74 1378 1712.66Z" stroke="#000000" stroke-width="13.75" stroke-miterlimit="8" fill="#D9D9D9" fill-rule="evenodd"/><text font-family="Arial,Arial_MSFontService,sans-serif" font-weight="700" font-size="92" transform="matrix(1 0 0 1 1645 1342)">Memory Structure</text><text font-family="Wingdings,Wingdings_MSFontService,sans-serif" font-weight="400" font-size="73" transform="matrix(1 0 0 1 1441.61 1448)"></text><text font-family="Arial,Arial_MSFontService,sans-serif" font-weight="400" font-size="73" transform="matrix(1 0 0 1 1544.74 1448)">Generating memory structure for </text><text font-family="Arial,Arial_MSFontService,sans-serif" font-weight="400" font-size="73" transform="matrix(1 0 0 1 1544.74 1547)">a given memory configuration</text><text font-family="Wingdings,Wingdings_MSFontService,sans-serif" font-weight="400" font-size="73" transform="matrix(1 0 0 1 1441.61 1647)"></text><text font-family="Arial,Arial_MSFontService,sans-serif" font-weight="400" font-size="73" transform="matrix(1 0 0 1 1544.74 1647)">(For ‘</text><text font-family="Arial,Arial_MSFontService,sans-serif" font-weight="400" font-size="73" transform="matrix(1 0 0 1 1716.04 1647)">spad</text><text font-family="Arial,Arial_MSFontService,sans-serif" font-weight="400" font-size="73" transform="matrix(1 0 0 1 1874.74 1647)">’ type) Filling the </text><text font-family="Arial,Arial_MSFontService,sans-serif" font-weight="400" font-size="73" transform="matrix(1 0 0 1 1544.74 1746)">memory according to the policy </text><path d="M1378 1919.67C1378 1901.63 1392.63 1887 1410.67 1887L2663.33 1887C2681.37 1887 2696 1901.63 2696 1919.67L2696 2050.33C2696 2068.37 2681.37 2083 2663.33 2083L1410.67 2083C1392.63 2083 1378 2068.37 1378 2050.33Z" stroke="#000000" stroke-width="13.75" stroke-miterlimit="8" fill="#D9D9D9" fill-rule="evenodd"/><text font-family="Arial,Arial_MSFontService,sans-serif" font-weight="700" font-size="92" transform="matrix(1 0 0 1 1604.24 2021)">Running Simulation</text><rect x="2900" y="505" width="1080" height="1020" stroke="#000000" stroke-width="10.3125" stroke-miterlimit="8" fill="#F2F2F2"/><text font-family="Arial,Arial_MSFontService,sans-serif" font-weight="700" font-size="92" transform="matrix(1 0 0 1 3027.47 649)">Simulation Results</text><text font-family="Wingdings,Wingdings_MSFontService,sans-serif" font-weight="400" font-size="59" transform="matrix(1 0 0 1 2932.67 756)"></text><text font-family="Arial,Arial_MSFontService,sans-serif" font-weight="400" font-size="73" transform="matrix(1 0 0 1 3035.79 756)">The simulator outputs </text><text font-family="Arial,Arial_MSFontService,sans-serif" font-weight="400" font-size="73" transform="matrix(1 0 0 1 3035.79 856)">total results and </text><text font-family="Arial,Arial_MSFontService,sans-serif" font-weight="400" font-size="73" transform="matrix(1 0 0 1 3035.79 956)">per</text><text font-family="Arial,Arial_MSFontService,sans-serif" font-weight="400" font-size="73" transform="matrix(1 0 0 1 3141.78 956)">-</text><text font-family="Arial,Arial_MSFontService,sans-serif" font-weight="400" font-size="73" transform="matrix(1 0 0 1 3166.42 956)">batch results.</text><text font-family="Wingdings,Wingdings_MSFontService,sans-serif" font-weight="400" font-size="59" transform="matrix(1 0 0 1 2932.67 1057)"></text><text font-family="Arial,Arial_MSFontService,sans-serif" font-weight="400" font-size="73" transform="matrix(1 0 0 1 3035.79 1057)">Number of the on</text><text font-family="Arial,Arial_MSFontService,sans-serif" font-weight="400" font-size="73" transform="matrix(1 0 0 1 3602.98 1057)">-</text><text font-family="Arial,Arial_MSFontService,sans-serif" font-weight="400" font-size="73" transform="matrix(1 0 0 1 3627.61 1057)">chip </text><text font-family="Arial,Arial_MSFontService,sans-serif" font-weight="400" font-size="73" transform="matrix(1 0 0 1 3035.79 1157)">memory access (hit)</text><text font-family="Wingdings,Wingdings_MSFontService,sans-serif" font-weight="400" font-size="59" transform="matrix(1 0 0 1 2932.67 1257)"></text><text font-family="Arial,Arial_MSFontService,sans-serif" font-weight="400" font-size="73" transform="matrix(1 0 0 1 3035.79 1257)">Number of the off</text><text font-family="Arial,Arial_MSFontService,sans-serif" font-weight="400" font-size="73" transform="matrix(1 0 0 1 3602.22 1257)">-</text><text font-family="Arial,Arial_MSFontService,sans-serif" font-weight="400" font-size="73" transform="matrix(1 0 0 1 3626.86 1257)">chip </text><text font-family="Arial,Arial_MSFontService,sans-serif" font-weight="400" font-size="73" transform="matrix(1 0 0 1 3035.79 1358)">memory access (miss)</text><text font-family="Wingdings,Wingdings_MSFontService,sans-serif" font-weight="400" font-size="59" transform="matrix(1 0 0 1 2932.67 1458)"></text><text font-family="Arial,Arial_MSFontService,sans-serif" font-weight="400" font-size="73" transform="matrix(1 0 0 1 3035.79 1458)">Arithmetic operation count</text><path d="M1188.5 2208.25 1323 2208.25 1323 2180.5 1378.5 2236 1323 2291.5 1323 2263.75 1188.5 2263.75Z" stroke="#000000" stroke-width="4.58333" stroke-miterlimit="8" fill-rule="evenodd"/><path d="M2705.5 2208.25 2840 2208.25 2840 2180.5 2895.5 2236 2840 2291.5 2840 2263.75 2705.5 2263.75Z" stroke="#000000" stroke-width="4.58333" stroke-miterlimit="8" fill-rule="evenodd"/><rect x="2900" y="1597" width="1080" height="486" stroke="#000000" stroke-width="10.3125" stroke-miterlimit="8" fill="#F2F2F2"/><text font-family="Arial,Arial_MSFontService,sans-serif" font-weight="700" font-size="92" transform="matrix(1 0 0 1 3037.51 1725)">Energy Estimation</text><text font-family="Wingdings,Wingdings_MSFontService,sans-serif" font-weight="400" font-size="59" transform="matrix(1 0 0 1 2932.67 1832)"></text><text font-family="Arial,Arial_MSFontService,sans-serif" font-weight="400" font-size="73" transform="matrix(1 0 0 1 3035.79 1832)">Using </text><text font-family="Arial,Arial_MSFontService,sans-serif" font-weight="400" font-size="73" transform="matrix(1 0 0 1 3239.13 1832)">Accelergy</text><text font-family="Arial,Arial_MSFontService,sans-serif" font-weight="400" font-size="73" transform="matrix(1 0 0 1 3581.16 1832)">and </text><text font-family="Arial,Arial_MSFontService,sans-serif" font-weight="400" font-size="73" transform="matrix(1 0 0 1 3035.79 1932)">simulation results </text><text font-family="Arial,Arial_MSFontService,sans-serif" font-weight="400" font-size="73" transform="matrix(1 0 0 1 3035.79 2032)">[Wu et al., ICCAD 2019]</text></g></svg>